<mxfile host="app.diagrams.net" agent="Mozilla/5.0 (X11; Ubuntu; Linux x86_64; rv:129.0) Gecko/20100101 Firefox/129.0" version="24.7.8">
  <diagram name="Page-1" id="PaBLHqTE_CmFPcXBeANT">
    <mxGraphModel dx="2084" dy="1105" grid="1" gridSize="10" guides="1" tooltips="1" connect="1" arrows="1" fold="1" page="1" pageScale="1" pageWidth="850" pageHeight="1100" math="0" shadow="0">
      <root>
        <mxCell id="0" />
        <mxCell id="1" parent="0" />
        <mxCell id="HZx76KmkkGWsenAYku1G-1" value="" style="rounded=0;whiteSpace=wrap;html=1;" vertex="1" parent="1">
          <mxGeometry x="-90" y="140" width="940" height="680" as="geometry" />
        </mxCell>
        <mxCell id="HZx76KmkkGWsenAYku1G-2" value="&lt;b&gt;hub.docker.com&lt;/b&gt;" style="text;html=1;align=center;verticalAlign=middle;whiteSpace=wrap;rounded=0;" vertex="1" parent="1">
          <mxGeometry x="-90" y="140" width="110" height="30" as="geometry" />
        </mxCell>
        <mxCell id="HZx76KmkkGWsenAYku1G-4" value="" style="whiteSpace=wrap;html=1;aspect=fixed;" vertex="1" parent="1">
          <mxGeometry x="-80" y="260" width="140" height="140" as="geometry" />
        </mxCell>
        <mxCell id="HZx76KmkkGWsenAYku1G-5" value="&lt;div&gt;&lt;b&gt;ose3-rails-sphinx&lt;br&gt;&lt;/b&gt;base image&lt;b&gt;&lt;br&gt;&lt;/b&gt;&lt;/div&gt;" style="text;html=1;align=center;verticalAlign=middle;whiteSpace=wrap;rounded=0;" vertex="1" parent="1">
          <mxGeometry x="-115" y="315" width="210" height="30" as="geometry" />
        </mxCell>
        <mxCell id="HZx76KmkkGWsenAYku1G-7" value="" style="whiteSpace=wrap;html=1;aspect=fixed;" vertex="1" parent="1">
          <mxGeometry x="-70" y="560" width="120" height="120" as="geometry" />
        </mxCell>
        <mxCell id="HZx76KmkkGWsenAYku1G-8" value="&lt;div&gt;ruby22-centos7&lt;/div&gt;&lt;div&gt;base image&lt;/div&gt;" style="text;html=1;align=center;verticalAlign=middle;whiteSpace=wrap;rounded=0;" vertex="1" parent="1">
          <mxGeometry x="-115" y="605" width="210" height="30" as="geometry" />
        </mxCell>
        <mxCell id="HZx76KmkkGWsenAYku1G-9" value="" style="endArrow=classic;html=1;rounded=0;exitX=0.5;exitY=1;exitDx=0;exitDy=0;entryX=0.5;entryY=0;entryDx=0;entryDy=0;" edge="1" parent="1" source="HZx76KmkkGWsenAYku1G-4" target="HZx76KmkkGWsenAYku1G-7">
          <mxGeometry width="50" height="50" relative="1" as="geometry">
            <mxPoint x="400" y="620" as="sourcePoint" />
            <mxPoint x="450" y="570" as="targetPoint" />
          </mxGeometry>
        </mxCell>
        <mxCell id="HZx76KmkkGWsenAYku1G-10" value="" style="endArrow=none;dashed=1;html=1;dashPattern=1 3;strokeWidth=2;rounded=0;exitX=0.219;exitY=0.003;exitDx=0;exitDy=0;entryX=0.219;entryY=1.001;entryDx=0;entryDy=0;exitPerimeter=0;entryPerimeter=0;" edge="1" parent="1" source="HZx76KmkkGWsenAYku1G-1" target="HZx76KmkkGWsenAYku1G-1">
          <mxGeometry width="50" height="50" relative="1" as="geometry">
            <mxPoint x="400" y="620" as="sourcePoint" />
            <mxPoint x="450" y="570" as="targetPoint" />
          </mxGeometry>
        </mxCell>
        <mxCell id="HZx76KmkkGWsenAYku1G-11" value="&lt;div&gt;&lt;b&gt;hitobito openshift project&lt;/b&gt;&lt;/div&gt;" style="text;html=1;align=center;verticalAlign=middle;whiteSpace=wrap;rounded=0;" vertex="1" parent="1">
          <mxGeometry x="110" y="140" width="200" height="30" as="geometry" />
        </mxCell>
        <mxCell id="HZx76KmkkGWsenAYku1G-12" value="&lt;div&gt;composition&lt;/div&gt;&lt;div&gt;git repo&lt;br&gt;&lt;/div&gt;" style="rounded=0;whiteSpace=wrap;html=1;" vertex="1" parent="1">
          <mxGeometry x="150" y="240" width="120" height="60" as="geometry" />
        </mxCell>
        <mxCell id="HZx76KmkkGWsenAYku1G-13" value="&lt;div&gt;composition&lt;/div&gt;&lt;div&gt;git repo&lt;br&gt;&lt;/div&gt;" style="rounded=0;whiteSpace=wrap;html=1;" vertex="1" parent="1">
          <mxGeometry x="150" y="320" width="120" height="60" as="geometry" />
        </mxCell>
        <mxCell id="HZx76KmkkGWsenAYku1G-14" value="" style="endArrow=classic;html=1;rounded=0;exitX=0.5;exitY=1;exitDx=0;exitDy=0;entryX=0.5;entryY=0;entryDx=0;entryDy=0;" edge="1" parent="1" source="HZx76KmkkGWsenAYku1G-12" target="HZx76KmkkGWsenAYku1G-13">
          <mxGeometry width="50" height="50" relative="1" as="geometry">
            <mxPoint x="540" y="620" as="sourcePoint" />
            <mxPoint x="590" y="570" as="targetPoint" />
          </mxGeometry>
        </mxCell>
        <mxCell id="HZx76KmkkGWsenAYku1G-15" value="" style="endArrow=classic;html=1;rounded=0;exitX=0;exitY=0.65;exitDx=0;exitDy=0;entryX=0.986;entryY=0.707;entryDx=0;entryDy=0;entryPerimeter=0;exitPerimeter=0;" edge="1" parent="1" source="HZx76KmkkGWsenAYku1G-13" target="HZx76KmkkGWsenAYku1G-4">
          <mxGeometry width="50" height="50" relative="1" as="geometry">
            <mxPoint x="540" y="620" as="sourcePoint" />
            <mxPoint x="590" y="570" as="targetPoint" />
          </mxGeometry>
        </mxCell>
        <mxCell id="HZx76KmkkGWsenAYku1G-16" value="&lt;div&gt;hitobito project&lt;/div&gt;&lt;div&gt;rails image&lt;/div&gt;" style="rounded=0;whiteSpace=wrap;html=1;" vertex="1" parent="1">
          <mxGeometry x="340" y="290" width="150" height="120" as="geometry" />
        </mxCell>
        <mxCell id="HZx76KmkkGWsenAYku1G-17" value="" style="endArrow=classic;html=1;rounded=0;exitX=0;exitY=0.5;exitDx=0;exitDy=0;entryX=1;entryY=0.5;entryDx=0;entryDy=0;" edge="1" parent="1" source="HZx76KmkkGWsenAYku1G-16" target="HZx76KmkkGWsenAYku1G-13">
          <mxGeometry width="50" height="50" relative="1" as="geometry">
            <mxPoint x="540" y="620" as="sourcePoint" />
            <mxPoint x="590" y="570" as="targetPoint" />
          </mxGeometry>
        </mxCell>
        <mxCell id="HZx76KmkkGWsenAYku1G-20" value="rails" style="rounded=0;whiteSpace=wrap;html=1;" vertex="1" parent="1">
          <mxGeometry x="355" y="480" width="120" height="60" as="geometry" />
        </mxCell>
        <mxCell id="HZx76KmkkGWsenAYku1G-21" value="" style="endArrow=classic;html=1;rounded=0;exitX=0.5;exitY=0;exitDx=0;exitDy=0;entryX=0.5;entryY=1;entryDx=0;entryDy=0;" edge="1" parent="1" source="HZx76KmkkGWsenAYku1G-20" target="HZx76KmkkGWsenAYku1G-16">
          <mxGeometry width="50" height="50" relative="1" as="geometry">
            <mxPoint x="540" y="620" as="sourcePoint" />
            <mxPoint x="590" y="570" as="targetPoint" />
          </mxGeometry>
        </mxCell>
        <mxCell id="HZx76KmkkGWsenAYku1G-23" value="" style="rounded=1;whiteSpace=wrap;html=1;strokeWidth=2;fillWeight=4;hachureGap=8;hachureAngle=45;fillColor=#1ba1e2;sketch=1;" vertex="1" parent="1">
          <mxGeometry x="450" y="480" width="25" height="20" as="geometry" />
        </mxCell>
        <mxCell id="HZx76KmkkGWsenAYku1G-25" value="delayed job" style="rounded=0;whiteSpace=wrap;html=1;" vertex="1" parent="1">
          <mxGeometry x="580" y="320" width="120" height="60" as="geometry" />
        </mxCell>
        <mxCell id="HZx76KmkkGWsenAYku1G-26" value="" style="rounded=1;whiteSpace=wrap;html=1;strokeWidth=2;fillWeight=4;hachureGap=8;hachureAngle=45;fillColor=#1ba1e2;sketch=1;" vertex="1" parent="1">
          <mxGeometry x="675" y="320" width="25" height="20" as="geometry" />
        </mxCell>
        <mxCell id="HZx76KmkkGWsenAYku1G-27" value="" style="endArrow=classic;html=1;rounded=0;exitX=0;exitY=0.5;exitDx=0;exitDy=0;entryX=1;entryY=0.5;entryDx=0;entryDy=0;" edge="1" parent="1" source="HZx76KmkkGWsenAYku1G-25" target="HZx76KmkkGWsenAYku1G-16">
          <mxGeometry width="50" height="50" relative="1" as="geometry">
            <mxPoint x="540" y="620" as="sourcePoint" />
            <mxPoint x="590" y="570" as="targetPoint" />
          </mxGeometry>
        </mxCell>
        <mxCell id="HZx76KmkkGWsenAYku1G-28" value="memcached" style="rounded=0;whiteSpace=wrap;html=1;" vertex="1" parent="1">
          <mxGeometry x="355" y="660" width="120" height="60" as="geometry" />
        </mxCell>
        <mxCell id="HZx76KmkkGWsenAYku1G-29" value="" style="rounded=1;whiteSpace=wrap;html=1;strokeWidth=2;fillWeight=4;hachureGap=8;hachureAngle=45;fillColor=#1ba1e2;sketch=1;" vertex="1" parent="1">
          <mxGeometry x="450" y="660" width="25" height="20" as="geometry" />
        </mxCell>
        <mxCell id="HZx76KmkkGWsenAYku1G-32" value="&lt;div&gt;mysql&lt;/div&gt;&lt;div&gt;&amp;nbsp;backup&lt;/div&gt;" style="rounded=0;whiteSpace=wrap;html=1;" vertex="1" parent="1">
          <mxGeometry x="560" y="660" width="120" height="60" as="geometry" />
        </mxCell>
        <mxCell id="HZx76KmkkGWsenAYku1G-33" value="" style="rounded=1;whiteSpace=wrap;html=1;strokeWidth=2;fillWeight=4;hachureGap=8;hachureAngle=45;fillColor=#1ba1e2;sketch=1;" vertex="1" parent="1">
          <mxGeometry x="655" y="660" width="25" height="20" as="geometry" />
        </mxCell>
        <mxCell id="HZx76KmkkGWsenAYku1G-34" value="postgres" style="rounded=0;whiteSpace=wrap;html=1;" vertex="1" parent="1">
          <mxGeometry x="150" y="660" width="120" height="60" as="geometry" />
        </mxCell>
        <mxCell id="HZx76KmkkGWsenAYku1G-35" value="" style="rounded=1;whiteSpace=wrap;html=1;strokeWidth=2;fillWeight=4;hachureGap=8;hachureAngle=45;fillColor=#1ba1e2;sketch=1;" vertex="1" parent="1">
          <mxGeometry x="245" y="660" width="25" height="20" as="geometry" />
        </mxCell>
      </root>
    </mxGraphModel>
  </diagram>
</mxfile>
